<?xml version="1.0" standalone="no"?>
<!DOCTYPE svg PUBLIC "-//W3C//DTD SVG 1.1//EN" "http://www.w3.org/Graphics/SVG/1.1/DTD/svg11.dtd">
<svg xmlns="http://www.w3.org/2000/svg" width="199.9969940185547" height="200" viewBox="0 0 199.997 200">
  <g id="Group_10" data-name="Group 10" transform="translate(-99.998 -100.003)">
    <g id="Group_9" data-name="Group 9" transform="translate(99.998 100)">
      <g id="Group_1" data-name="Group 1" transform="translate(-99.998 -1047.166)">
        <path id="Path_1" data-name="Path 1" d="M166.832,1047.169h.5l.213.01h.03l.185.01h.064l.166.01h.051l.212.02h.044l.171.01.062.01.178.02h.036l.212.02.05.01.167.02h.058l.2.03h.01l.213.03.051.01.169.02.05.01.214.03.21.04.049.01.177.03.037.01.08.02.235.04.087.02.286.06.066.02.231.06.094.02.278.07.062.02.229.06.1.03.24.07.039.01.046.02.231.07.105.03.209.07.072.03.022.01.24.08.109.04.188.07.093.04a19.845,19.845,0,0,1,10.652,9.66c9.029,18.06,19.172,38.35,24.395,48.79a10.961,10.961,0,0,1-.928,11.33l-.241-.07-.723-.18c-.242-.06-.485-.12-.729-.17l-.734-.15c-.246-.05-.493-.09-.74-.13l-.747-.12-.752-.09c-.251-.03-.5-.05-.758-.08s-.508-.04-.763-.05-.512-.03-.769-.04-.516-.02-.774-.02h-.69c-.144,0-.288,0-.434.01l-.38.01c-.128,0-.256.01-.384.02l-.382.02c-.128.01-.255.02-.382.02l-.38.04-.378.03-.378.04c-.125.02-.25.03-.376.05l-.374.05c-.124.02-.249.03-.373.05l-.372.06c-.123.02-.246.04-.37.07l-.368.06c-.122.03-.245.05-.367.08l-.365.07c-.121.03-.242.06-.364.08l-.362.09-.36.09-.05.01c-.237.07-.474.13-.708.2l-.312.09c-.118.03-.235.07-.353.11l-.046.01q-.708.225-1.4.48l-.292.11c-.114.04-.228.08-.342.13l-.339.13-.338.15-.335.14-.333.15-.331.15c-.11.05-.22.11-.329.16l-.327.16c-.108.05-.216.11-.325.16l-.056.03c-.216.11-.43.22-.641.34s-.422.23-.631.35-.413.25-.618.37-.4.25-.6.38-.4.26-.6.4l-.266.18c-.1.07-.2.13-.3.2l-.293.22-.29.21-.287.22c-.1.07-.19.15-.285.22l-.282.22c-.093.08-.186.15-.279.23l-.277.23-.273.24-.271.23-.268.24-.053.05c-.452.42-.892.84-1.318,1.28-.245.26-.485.51-.722.77s-.479.54-.711.82c-.146.17-.29.35-.431.52l-.2.25c-.074.1-.147.19-.221.28l-.218.29c-.071.1-.143.19-.214.29l-.211.3c-.069.09-.138.19-.208.29l-.2.3-.2.3-.2.3c-.064.1-.129.21-.193.31l-.19.31c-.062.1-.124.2-.186.31l-.183.31c-.06.1-.119.21-.179.31l-.175.32c-.057.11-.114.22-.171.32l-.029.06c-.113.21-.223.43-.33.64s-.213.44-.315.66-.2.44-.3.66-.191.45-.283.67-.18.46-.266.68-.168.46-.249.69-.157.45-.231.68-.146.46-.214.69-.138.47-.2.71l-.09.34-.09.36-.086.36c-.027.13-.055.25-.082.37l-.077.36c-.024.13-.049.25-.073.37l-.068.37c-.021.12-.043.25-.064.37l-.059.37c-.018.13-.037.25-.055.37l-.05.38c-.015.12-.03.25-.045.37l-.041.38c-.012.13-.024.25-.036.38l-.031.38c-.009.13-.018.25-.027.38l-.022.38c-.006.13-.011.26-.017.39l-.012.38c0,.13,0,.26-.008.39l0,.39a29.97,29.97,0,0,0,1.1,8.07,10.945,10.945,0,0,1-11.326.93c-10.446-5.22-30.732-15.37-48.79-24.4a19.812,19.812,0,0,1-9.664-10.65l-.036-.09-.07-.19-.039-.11-.085-.24-.008-.02-.024-.07-.07-.21-.034-.11-.073-.23-.014-.04-.012-.04-.071-.24-.029-.1-.063-.23-.017-.06-.072-.28-.024-.09-.055-.23-.016-.07-.063-.29-.019-.08-.048-.24-.016-.08-.007-.04-.033-.17-.009-.05-.037-.21-.034-.22-.008-.05-.026-.16-.007-.06-.029-.21,0-.01-.025-.2-.007-.06-.019-.17-.006-.05-.021-.21,0-.03-.015-.18-.006-.06-.013-.18,0-.04-.014-.21,0-.05-.009-.17,0-.06-.008-.19v-.03l-.007-.21v-.06l0-.16V1114a19.929,19.929,0,0,1,12.021-18.29l15.019-7.51a31.322,31.322,0,0,0,13.995-13.99l7.509-15.02a19.943,19.943,0,0,1,18.291-12.02Z" fill="rgba(5,35,250,0.4)" fill-rule="evenodd"/>
      </g>
      <g id="Group_2" data-name="Group 2" transform="translate(-99.998 -1047.166)">
        <path id="Path_2" data-name="Path 2" d="M111.8,1095.809a19.817,19.817,0,0,1,14.366-.7c19.154,6.38,40.67,13.55,51.75,17.25a10.942,10.942,0,0,1,7.353,8.67q-1.065.6-2.076,1.29c-.2.13-.4.27-.6.41s-.394.29-.587.43-.387.29-.576.44-.379.31-.565.46-.37.31-.553.47-.362.32-.541.48q-.37.345-.729.69c-.452.44-.889.9-1.311,1.36-.555.62-1.084,1.25-1.588,1.91-.146.19-.291.39-.433.58s-.282.4-.419.59-.272.4-.405.61-.262.4-.39.61-.253.41-.376.62-.243.42-.361.63-.232.42-.345.64-.223.43-.33.64-.212.44-.315.66-.2.44-.3.66-.191.45-.283.67-.18.46-.266.68-.168.46-.249.69-.157.45-.231.68-.146.46-.214.69a30.036,30.036,0,0,0,14.039,34.69,10.97,10.97,0,0,1-7.353,8.67c-11.08,3.69-32.6,10.86-51.75,17.25a19.922,19.922,0,0,1-14.366-.7l-.09-.04-.182-.09-.106-.04-.229-.11-.021-.01-.069-.04-.2-.1-.1-.05-.214-.11-.043-.02-.036-.02-.22-.12-.091-.05-.206-.12-.056-.03-.248-.15-.083-.05-.2-.12-.058-.03-.247-.16-.074-.05-.2-.13-.069-.05-.031-.02-.149-.1-.04-.03-.175-.12-.176-.13-.04-.03-.138-.1-.041-.03-.172-.13-.007-.01-.161-.12-.046-.04-.131-.1-.039-.03-.165-.14-.029-.02-.136-.11-.048-.04-.131-.12-.033-.03-.16-.14-.038-.03-.124-.11-.047-.04-.136-.13-.022-.02-.156-.15-.042-.04-.117-.11-.045-.04-.153-.15a19.924,19.924,0,0,1-4.433-21.44l5.31-15.93a31.291,31.291,0,0,0,0-19.79l-5.31-15.93q-.16-.405-.3-.81a1.533,1.533,0,0,0-.066-.29,19.855,19.855,0,0,1,.434-13.74l.02-.05.09-.22.033-.08.006-.01.107-.25.045-.1.086-.18.041-.09.124-.26.038-.08.1-.2.045-.09.13-.25.008-.01.009-.02.135-.25.045-.08.117-.21.036-.06.152-.26.04-.06.124-.21.046-.07.163-.26.019-.03.151-.22.077-.12.028-.04.123-.18.024-.03.1-.15.035-.05.129-.18.131-.17.036-.05.11-.14.027-.04.134-.17.033-.04.11-.13.037-.05.139-.17.019-.02.125-.15.04-.04.128-.15.019-.02.146-.17.039-.04.119-.13.036-.04.151-.16.031-.03.126-.13.043-.04.156-.16.153-.15.045-.05.117-.11.042-.04.156-.15.022-.02.136-.12.047-.05.124-.11.038-.03.16-.14.033-.03.131-.11.048-.04.136-.12.029-.02.165-.13.039-.04.131-.1.046-.04.161-.12.007-.01.172-.13.041-.03.138-.1.04-.03.176-.12.175-.13.04-.03.149-.1.031-.02.069-.05.2-.13.074-.04.247-.16.058-.04.2-.12.083-.05.248-.15.056-.03.206-.12.091-.05.22-.12.036-.02.043-.02.214-.11.1-.05.2-.1.069-.03.021-.01.229-.11.106-.05.182-.08Z" fill="rgba(36,46,219,0.5)" fill-rule="evenodd"/>
      </g>
      <g id="Group_3" data-name="Group 3" transform="translate(-99.998 -1047.166)">
        <path id="Path_3" data-name="Path 3" d="M101.318,1173.209a19.881,19.881,0,0,1,9.664-10.65c18.058-9.03,38.344-19.17,48.79-24.4a10.967,10.967,0,0,1,11.326.93l-.066.24c-.065.24-.127.48-.186.73s-.114.48-.167.72-.1.49-.15.74-.091.49-.132.74-.078.5-.113.75-.066.5-.095.75-.054.5-.076.76-.041.5-.057.76-.029.51-.038.77c-.014.37-.021.74-.021,1.12,0,.14,0,.28,0,.43a30.023,30.023,0,0,0,38.071,28.47,10.941,10.941,0,0,1,.928,11.32c-5.223,10.45-15.366,30.73-24.395,48.79a19.864,19.864,0,0,1-10.652,9.67l-.093.03-.188.07-.109.04-.24.09-.022.01-.072.02-.209.07-.105.03-.231.08-.046.01-.039.01-.24.07-.1.03-.229.07-.062.01-.278.07-.094.03-.231.05-.066.02-.286.06-.087.02-.235.05-.08.02h-.037l-.177.04h-.049l-.21.04-.214.03-.05.01-.169.03-.051.01-.213.03h-.01l-.2.02-.058.01-.167.02h-.05l-.212.03h-.036l-.178.01-.062.01-.171.01-.044.01-.212.01h-.051l-.166.01h-.064l-.185.01h-.03l-.213.01h-.284l-.215.01a19.923,19.923,0,0,1-18.291-12.02l-7.509-15.02a31.3,31.3,0,0,0-13.995-14l-15.019-7.51A19.942,19.942,0,0,1,100,1180.329v-.28l0-.16v-.06l.007-.21v-.03l.008-.19,0-.06.009-.17,0-.05.014-.21,0-.04.013-.17.006-.07.015-.17,0-.04.021-.21.006-.05.019-.17.007-.06.025-.2,0-.01.029-.21.007-.05.026-.17.008-.05.034-.21.037-.21.009-.05.033-.18.007-.04.016-.08.048-.23.019-.09.063-.28.016-.07.055-.23.024-.1.072-.28.017-.06.063-.23.029-.09.071-.24.012-.04.014-.05.073-.23.034-.11.07-.21.024-.07.008-.02.085-.24.039-.11.07-.19Z" fill="rgba(116,75,139,0.6)" fill-rule="evenodd"/>
      </g>
      <g id="Group_4" data-name="Group 4" transform="translate(-99.998 -1047.166)">
        <path id="Path_4" data-name="Path 4" d="M148.636,1235.359a19.881,19.881,0,0,1-.7-14.37c6.385-19.15,13.557-40.67,17.25-51.75a10.962,10.962,0,0,1,8.671-7.35,30,30,0,0,0,52.277,0,10.962,10.962,0,0,1,8.671,7.35c3.693,11.08,10.865,32.6,17.25,51.75.5,1.52.53,6.14.209,12.53l-.813,1.63a19.9,19.9,0,0,1-25.63,10.61l-15.931-5.31a31.3,31.3,0,0,0-19.79,0l-15.931,5.31a19.978,19.978,0,0,1-21.434-4.43l-.151-.16-.043-.04-.113-.12-.041-.04-.146-.15-.02-.03-.126-.13-.042-.05-.112-.12-.034-.04-.14-.16-.028-.03-.112-.14-.041-.04-.114-.14-.023-.03-.135-.16-.031-.04-.1-.13-.036-.05-.124-.16-.006-.01-.13-.17-.031-.04-.1-.14-.03-.04-.127-.17-.123-.18-.028-.04-.1-.15-.021-.03-.045-.07-.132-.2-.049-.07-.157-.25-.036-.06-.123-.2-.05-.08-.146-.25-.032-.06-.117-.2-.05-.09-.12-.22-.019-.04-.023-.04-.111-.22-.051-.1-.1-.19-.034-.07-.01-.02-.109-.23-.05-.11-.083-.18Z" fill="rgba(227,116,28,0.6)" fill-rule="evenodd"/>
      </g>
      <g id="Group_5" data-name="Group 5" transform="translate(-99.998 -1047.166)">
        <path id="Path_5" data-name="Path 5" d="M228.938,1139.249l-.043-.16a10.968,10.968,0,0,1,11.326-.93c10.446,5.23,30.732,15.37,48.79,24.4,1.348.67,4.073,2.25,7.571,4.41l2.008,6.02a19.9,19.9,0,0,1-10.616,25.63l-21.084,10.54a10.951,10.951,0,0,0-4.9,4.9l-10.542,21.09a20,20,0,0,1-18.291,12.02l-.215-.01h-.284l-.213-.01h-.03l-.185-.01h-.064l-.166-.01h-.051l-.212-.01-.044-.01-.171-.01-.062-.01-.178-.01h-.036l-.212-.03h-.05l-.167-.02-.058-.01-.2-.02h-.01l-.213-.03-.051-.01-.169-.03-.05-.01-.214-.03-.21-.04H229.6l-.177-.04h-.037l-.08-.02-.235-.05-.087-.02-.286-.06-.066-.02-.231-.05-.094-.03-.278-.07-.062-.01-.229-.07-.1-.03-.24-.07-.039-.01-.046-.01-.231-.08-.105-.03-.209-.07-.072-.02-.022-.01-.24-.09-.109-.04-.188-.07-.093-.03a19.864,19.864,0,0,1-10.652-9.67c-9.029-18.06-19.172-38.34-24.395-48.79a10.941,10.941,0,0,1,.928-11.32,30.022,30.022,0,0,0,38.074-28.9c0-.93-.042-1.84-.124-2.74-.023-.26-.049-.51-.078-.76s-.062-.51-.1-.76-.074-.5-.116-.74-.086-.5-.134-.75-.1-.49-.153-.73-.11-.49-.17-.73S229,1139.489,228.938,1139.249Z" fill="rgba(255,148,0,0.5)" fill-rule="evenodd"/>
      </g>
      <g id="Group_6" data-name="Group 6" transform="translate(-99.998 -1047.166)">
        <path id="Path_6" data-name="Path 6" d="M218.76,1123.759a30.421,30.421,0,0,0-4.039-2.73,10.942,10.942,0,0,1,7.353-8.67c11.08-3.7,32.6-10.87,51.75-17.25a19.817,19.817,0,0,1,14.366.7l.09.04.182.08.106.05.229.11.021.01.069.03.2.1.1.05.214.11.043.02.036.02.22.12.091.05.206.12.056.03.248.15.083.05.2.12.058.04.247.16.074.04.2.13.069.05.031.02.149.1.04.03.175.13.176.12.04.03.138.1.041.03.172.13.007.01.161.12.046.04.131.1.039.04.165.13.029.02.136.12.048.04.131.11.033.03.16.14.038.03.124.11.047.05.136.12.022.02.156.15.042.04.117.11.045.05.153.15a19.907,19.907,0,0,1,4.433,21.43l-5.31,15.93a31.291,31.291,0,0,0,0,19.79l5.31,15.93a19.961,19.961,0,0,1-4.433,21.44l-.153.15-.045.04-.117.11-.042.04-.156.15-.022.02-.136.13-.047.04-.124.11-.038.03-.16.14-.033.03-.131.12-.048.04-.136.11-.029.02-.165.14-.039.03-.131.1-.046.04-.161.12-.007.01-.172.13-.041.03-.138.1-.04.03-.176.13-.175.12-.04.03-.149.1-.031.02-.069.05-.2.13-.074.05-.247.16-.058.03-.2.12-.083.05-.248.15-.056.03-.206.12-.091.05-.22.12-.036.02-.043.02-.214.11-.1.05-.2.1-.069.04-.021.01-.229.11-.106.04-.182.09-.09.04a19.922,19.922,0,0,1-14.366.7c-19.154-6.39-40.67-13.56-51.75-17.25a10.97,10.97,0,0,1-7.353-8.67,30.036,30.036,0,0,0,14.033-34.71c-.071-.24-.145-.48-.221-.71s-.156-.47-.238-.7-.167-.47-.255-.7-.178-.45-.271-.68-.189-.45-.288-.68-.2-.45-.3-.67-.211-.44-.319-.66-.221-.43-.335-.65-.231-.43-.35-.64a30.037,30.037,0,0,0-4.712-6.29c-.194-.2-.391-.4-.59-.59q-.768-.75-1.588-1.44C219.111,1124.049,218.936,1123.909,218.76,1123.759Z" fill="rgba(255,170,0,0.7)" fill-rule="evenodd"/>
      </g>
      <g id="Group_7" data-name="Group 7" transform="translate(-99.998 -1047.166)">
        <path id="Path_7" data-name="Path 7" d="M233.161,1047.169a19.923,19.923,0,0,1,18.291,12.02l7.509,15.02a31.322,31.322,0,0,0,13.995,13.99l15.019,7.51A19.964,19.964,0,0,1,300,1114v.28l0,.16v.06l-.007.21v.03l-.008.19,0,.06-.009.17,0,.05-.014.21,0,.04-.013.18-.006.06-.015.18,0,.03-.021.21-.006.05-.019.17-.007.06-.025.2,0,.01-.029.21-.007.06-.026.16-.008.05-.034.22-.037.21-.009.05-.033.17-.007.04-.016.08-.048.24-.019.08-.063.29-.016.07-.055.23-.024.09-.072.28-.017.06-.063.23-.029.1-.071.24-.012.04-.014.04-.073.23-.034.11-.07.21-.024.07-.008.02-.085.24-.039.11-.07.19-.036.09a19.812,19.812,0,0,1-9.664,10.65c-18.058,9.03-38.344,19.18-48.79,24.4a10.945,10.945,0,0,1-11.326-.93,29.969,29.969,0,0,0,1.1-8.07c0-.93-.042-1.84-.124-2.74l-.031-.33c-.014-.12-.027-.25-.041-.38l-.045-.37c-.017-.13-.034-.25-.05-.38l-.055-.37c-.02-.12-.039-.25-.059-.37l-.064-.37c-.023-.12-.045-.25-.068-.37l-.073-.37c-.026-.12-.051-.24-.077-.36l-.082-.37c-.028-.12-.057-.24-.086-.36l-.018-.07c-.059-.24-.121-.47-.185-.71-.06-.22-.122-.44-.185-.65l-.107-.35c-.037-.12-.074-.23-.111-.35l-.116-.35c-.04-.12-.08-.23-.12-.35l-.125-.34c-.042-.12-.085-.23-.128-.35l-.132-.34c-.046-.11-.091-.23-.137-.34l-.14-.34-.144-.33-.149-.33c-.051-.12-.1-.22-.152-.34l-.156-.33c-.054-.1-.107-.21-.16-.32l-.164-.33c-.056-.1-.112-.21-.168-.32l-.171-.32c-.058-.1-.117-.21-.175-.32l-.179-.31c-.061-.11-.122-.21-.183-.31l-.186-.31c-.063-.11-.126-.21-.19-.31l-.193-.31-.2-.3-.2-.3-.2-.3-.152-.22c-.167-.23-.338-.47-.512-.7l-.187-.25c-.074-.09-.147-.18-.221-.28l-.224-.28c-.076-.09-.152-.19-.228-.28l-.231-.28-.234-.27-.238-.27-.24-.27-.049-.05c-.413-.46-.84-.89-1.279-1.32q-.379-.375-.772-.72c-.268-.25-.54-.48-.816-.72-.173-.14-.348-.28-.524-.43l-.246-.19c-.1-.07-.19-.15-.285-.22l-.287-.22-.29-.21-.293-.22c-.1-.07-.2-.13-.3-.2l-.3-.21c-.1-.06-.2-.13-.3-.2l-.3-.19c-.1-.07-.2-.13-.306-.2l-.308-.19-.31-.18-.313-.19-.316-.18-.317-.17c-.107-.06-.213-.12-.32-.17l-.055-.03-.648-.33c-.217-.11-.436-.21-.656-.32s-.441-.2-.664-.29-.446-.2-.67-.29-.451-.18-.678-.26-.453-.17-.683-.25-.457-.16-.687-.23-.458-.15-.689-.22-.473-.13-.711-.2l-.34-.09-.36-.09-.362-.09c-.122-.02-.243-.05-.364-.08l-.365-.07c-.122-.03-.245-.05-.367-.08l-.368-.06c-.124-.03-.247-.05-.37-.07l-.372-.06c-.124-.02-.249-.03-.373-.05l-.374-.05c-.126-.02-.251-.03-.376-.05l-.378-.04-.378-.03-.38-.04c-.127,0-.254-.01-.382-.02l-.382-.02c-.128-.01-.256-.02-.384-.02l-.385-.01c-.129-.01-.258-.01-.387-.01h-.732a28.836,28.836,0,0,0-3.5.24c-.252.03-.5.07-.753.11l-.747.12c-.249.05-.5.09-.741.15s-.491.1-.735.16-.485.11-.726.17l-.531.15a10.961,10.961,0,0,1-.928-11.33c5.223-10.44,15.366-30.73,24.395-48.79a19.845,19.845,0,0,1,10.652-9.66l.093-.04.188-.07.109-.04.24-.08.022-.01.072-.03.209-.07.105-.03.231-.07.046-.02.039-.01.24-.07.1-.03.229-.06.062-.02.278-.07.094-.02.231-.06.066-.02.286-.06.087-.02.235-.04.08-.02.037-.01.177-.03.049-.01.21-.04.214-.03.05-.01.169-.02.051-.01.213-.03h.01l.2-.03h.058l.167-.02.05-.01.212-.02h.036l.178-.02.062-.01.171-.01h.044l.212-.02H232l.166-.01h.064l.185-.01h.03l.213-.01h.5Z" fill="rgba(255,197,0,0.6)" fill-rule="evenodd"/>
      </g>
      <g id="Group_8" data-name="Group 8" transform="translate(-99.998 -1047.166)">
        <path id="Path_8" data-name="Path 8" d="M152.738,1053.009a19.931,19.931,0,0,1,21.434-4.44l15.931,5.31a31.3,31.3,0,0,0,19.79,0l15.931-5.31a19.947,19.947,0,0,1,21.434,4.44l.151.15.043.04.113.12.041.04.146.16.02.02.126.14.042.04.112.13.034.03.14.16.028.04.112.13.041.05.114.13.023.03.135.17.031.04.1.13.036.04.124.16.006.01.13.17.031.04.1.14.03.04.127.18.123.17.028.04.1.15.021.03.045.07.132.2.049.08.157.24.036.06.123.2.05.09.146.24.032.06.117.21.05.09.12.22.019.03.023.05.111.21.051.1.1.2.034.06.01.03.109.23.05.1.083.18.041.09a19.881,19.881,0,0,1,.7,14.37c-6.385,19.15-13.557,40.67-17.25,51.75a10.945,10.945,0,0,1-8.671,7.35c-.109-.19-.22-.38-.335-.57q-.186-.315-.381-.63c-.13-.2-.262-.41-.4-.61q-.249-.375-.509-.75c-.167-.23-.338-.47-.512-.7q-.219-.285-.443-.57c-.151-.2-.3-.38-.457-.57s-.311-.37-.47-.55-.319-.37-.482-.54c-.226-.25-.455-.49-.689-.73-.44-.45-.895-.89-1.362-1.31q-.921-.84-1.909-1.59c-.192-.15-.385-.29-.581-.43s-.392-.29-.591-.42-.4-.28-.6-.41-.406-.26-.611-.39-.413-.25-.621-.37-.419-.25-.63-.37-.425-.23-.639-.34l-.648-.33c-.217-.11-.436-.21-.656-.32s-.441-.2-.664-.29-.446-.2-.67-.29-.45-.18-.678-.26-.453-.17-.683-.25-.457-.16-.687-.23-.458-.15-.689-.22a30.125,30.125,0,0,0-8.545-1.23c-.26,0-.519,0-.779.01s-.517.01-.773.03-.514.03-.769.05l-.763.06a30.359,30.359,0,0,0-5.168,1l-.711.21c-.236.08-.47.15-.7.23s-.465.16-.695.25-.459.17-.687.26-.454.18-.679.28-.448.19-.67.29-.442.21-.66.31-.436.22-.651.33-.429.22-.641.34-.422.23-.631.35-.414.25-.618.37-.4.25-.6.38a30.362,30.362,0,0,0-4.745,3.78c-.2.19-.395.39-.589.59q-.744.765-1.433,1.59c-.146.17-.289.35-.431.52a30.433,30.433,0,0,0-2.737,4.04,10.945,10.945,0,0,1-8.671-7.35c-3.693-11.08-10.865-32.6-17.25-51.75a19.881,19.881,0,0,1,.7-14.37l.041-.09.083-.18.05-.1.109-.23.01-.03.034-.06.1-.2.051-.1.111-.21.023-.05.019-.03.12-.22.05-.09.117-.21.032-.06.146-.24.05-.09.123-.2.036-.06.157-.24.049-.08.132-.2.045-.07.021-.03.1-.15.028-.04.123-.17.127-.18.03-.04.1-.14.031-.04.13-.17.006-.01.124-.16.036-.04.1-.13.031-.04.135-.17.023-.03.114-.13.041-.05.112-.13.028-.04.14-.16.034-.03.112-.13.042-.04.126-.14.02-.02.146-.16.041-.04.113-.12.043-.04Z" fill="rgba(255,215,0,0.8)" fill-rule="evenodd"/>
      </g>
    </g>
  </g>
</svg>