<svg xmlns="http://www.w3.org/2000/svg" shape-rendering="geometricPrecision" text-rendering="geometricPrecision" image-rendering="optimizeQuality" fill-rule="evenodd" clip-rule="evenodd"
viewBox="0 0 466 511.98">
 <g id="Layer_x0020_1">
  <path fill="#EA4335" fill-rule="nonzero" d="M199.9 237.8l-198.5 232.37c7.22,24.57 30.16,41.81 55.8,41.81 11.16,0 20.93,-2.79 29.3,-8.37l0 0 244.16 -139.46 -130.76 -126.35z"/>
  <path fill="#FBBC04" fill-rule="nonzero" d="M433.91 205.1l0 0 -104.65 -60 -111.61 110.22 113.01 108.83 104.64 -58.6c18.14,-9.77 30.7,-29.3 30.7,-50.23 -1.4,-20.93 -13.95,-40.46 -32.09,-50.22z"/>
  <path fill="#34A853" fill-rule="nonzero" d="M199.42 273.45l129.85 -128.35 -241.37 -136.73c-8.37,-5.58 -19.54,-8.37 -30.7,-8.37 -26.5,0 -50.22,18.14 -55.8,41.86 0,0 0,0 0,0l198.02 231.59z"/>
  <path fill="#4285F4" fill-rule="nonzero" d="M1.39 41.86c-1.39,4.18 -1.39,9.77 -1.39,15.34l0 397.64c0,5.57 0,9.76 1.4,15.34l216.27 -214.86 -216.28 -213.46z"/>
 </g>
</svg>
